<?xml version="1.0" encoding="UTF-8"?>
<svg width="485px" height="513px" viewBox="0 0 485 513" version="1.1" xmlns="http://www.w3.org/2000/svg" xmlns:xlink="http://www.w3.org/1999/xlink">
    <!-- Generator: Sketch 45.2 (43514) - http://www.bohemiancoding.com/sketch -->
    <desc>Created with Sketch.</desc>
    <defs></defs>
    <g id="Homepage" stroke="none" stroke-width="1" fill="none" fill-rule="evenodd">
        <g id="Desktop-HD" transform="translate(-457.000000, -1256.000000)" stroke="#414141" fill="#515151">
            <g id="Group" transform="translate(238.000000, 1257.000000)">
                <path d="M354.17575,616.797742 C486.523527,616.797742 593.812598,509.508671 593.812598,377.160895 C593.812598,244.813119 486.523527,137.524048 354.17575,137.524048 C285.232143,137.524048 414.608825,134.439572 495.504344,181.044456 C569.900118,223.904758 593.812598,313.756727 593.812598,377.160895 C593.812598,435.580634 541.014931,541.702104 471.425903,583.284485 C383.363541,635.905462 280.247713,616.797742 354.17575,616.797742 Z" id="Oval" transform="translate(461.348893, 378.830794) rotate(90.000000) translate(-461.348893, -378.830794) "></path>
                <path d="M569.687684,371.218092 C647.268612,371.218092 526.817688,385.958621 434.333897,328.680478 C369.467223,288.506491 330.689652,186.634101 330.689652,132.22006 C330.689652,76.5189656 367.879941,-24.3895614 434.333897,-65.0265915 C525.35598,-120.687193 645.981557,-106.777971 569.687684,-106.777971 C437.692716,-106.777971 330.689652,0.225092346 330.689652,132.22006 C330.689652,264.215028 437.692716,371.218092 569.687684,371.218092 Z" id="Oval" transform="translate(462.621344, 132.298782) rotate(90.000000) translate(-462.621344, -132.298782) "></path>
            </g>
        </g>
    </g>
</svg>
